<?xml version="1.0" encoding="UTF-8" standalone="no"?>
<!DOCTYPE svg PUBLIC "-//W3C//DTD SVG 1.1//EN" "http://www.w3.org/Graphics/SVG/1.1/DTD/svg11.dtd">
<!-- Generated by Microsoft Visio, SVG Export config_vault.svg Page-1 -->
<svg xmlns="http://www.w3.org/2000/svg" xmlns:xlink="http://www.w3.org/1999/xlink" xmlns:ev="http://www.w3.org/2001/xml-events"
		xmlns:v="http://schemas.microsoft.com/visio/2003/SVGExtensions/" width="8.26772in" height="11.6929in"
		viewBox="0 0 595.276 841.89" xml:space="preserve" color-interpolation-filters="sRGB" class="st16">
	<v:documentProperties v:langID="8192" v:metric="true" v:viewMarkup="false">
		<v:userDefs>
			<v:ud v:nameU="msvNoAutoConnect" v:val="VT0(1):26"/>
		</v:userDefs>
	</v:documentProperties>

	<style type="text/css">
	<![CDATA[
		.st1 {fill:#ff00ff;fill-opacity:0}
		.st2 {stroke:#000000;stroke-linecap:round;stroke-linejoin:round;stroke-opacity:0;stroke-width:0.72}
		.st3 {fill:url(#grad0-8);stroke:#ffffff;stroke-linecap:round;stroke-linejoin:round;stroke-width:0.72}
		.st4 {fill:url(#grad11-12)}
		.st5 {stroke:#000000;stroke-linecap:round;stroke-linejoin:round;stroke-width:0.72}
		.st6 {stroke:#000000;stroke-linecap:round;stroke-linejoin:round;stroke-width:1.5}
		.st7 {fill:#000000;font-family:Cambria;font-size:1.00001em}
		.st8 {fill:#ffffff;stroke:#000000;stroke-linecap:round;stroke-linejoin:round;stroke-width:0.24}
		.st9 {fill:none;stroke:none;stroke-linecap:round;stroke-linejoin:round;stroke-width:0.75}
		.st10 {font-size:1em}
		.st11 {marker-end:url(#mrkr5-85);stroke:#000000;stroke-dasharray:2.25,4.5;stroke-linecap:round;stroke-linejoin:round;stroke-width:2.25}
		.st12 {fill:#000000;fill-opacity:1;stroke:#000000;stroke-opacity:1;stroke-width:0.47169811320755}
		.st13 {fill:#000000;font-family:Bowlby One SC;font-size:1.5em}
		.st14 {fill:#ffffff}
		.st15 {stroke:#000000;stroke-linecap:round;stroke-linejoin:round;stroke-width:0.24}
		.st16 {fill:none;fill-rule:evenodd;font-size:12px;overflow:visible;stroke-linecap:square;stroke-miterlimit:3}
	]]>
	</style>

	<defs id="Patterns_And_Gradients">
		<linearGradient id="grad0-8" x1="0" y1="0" x2="1" y2="0" gradientTransform="rotate(270 0.5 0.5)">
			<stop offset="0" stop-color="#ffffff" stop-opacity="1"/>
			<stop offset="1" stop-color="#dfdfdf" stop-opacity="1"/>
		</linearGradient>
		<pattern id="grad11-12" x="0" y="0" width="1" height="1" patternContentUnits="objectBoundingBox">
			<path d="M 0 1 L 0 0 L 1 0 z" style="fill:url(#grad0-13)"/>
			<path d="M 0 1 L 1 1 L 1 0 z" style="fill:url(#grad0-14)"/>
		</pattern>
		<linearGradient id="grad0-13" x1="0" y1="0" x2="1" y2="0" gradientTransform="rotate(180 0.5 0.5)">
			<stop offset="0" stop-color="#ffffff" stop-opacity="1"/>
			<stop offset="1" stop-color="#c0c0c0" stop-opacity="1"/>
		</linearGradient>
		<linearGradient id="grad0-14" x1="0" y1="0" x2="1" y2="0" gradientTransform="rotate(90 0.5 0.5)">
			<stop offset="0" stop-color="#ffffff" stop-opacity="1"/>
			<stop offset="1" stop-color="#c0c0c0" stop-opacity="1"/>
		</linearGradient>
	</defs>
	<defs id="Markers">
		<g id="lend5">
			<path d="M 2 1 L 0 0 L 1.98117 -0.993387 C 1.67173 -0.364515 1.67301 0.372641 1.98465 1.00043 " style="stroke:none"/>
		</g>
		<marker id="mrkr5-85" class="st12" v:arrowType="5" v:arrowSize="2" v:setback="3.55" refX="-3.55" orient="auto"
				markerUnits="strokeWidth" overflow="visible">
			<use xlink:href="#lend5" transform="scale(-2.12,-2.12) "/>
		</marker>
	</defs>
	<g v:mID="0" v:index="1" v:groupContext="foregroundPage">
		<title>Page-1</title>
		<v:pageProperties v:drawingScale="0.0393701" v:pageScale="0.0393701" v:drawingUnits="24" v:shadowOffsetX="8.50394"
				v:shadowOffsetY="-8.50394"/>
		<v:layer v:name="Connector" v:index="0"/>
		<v:layer v:name="Annotations" v:index="1"/>
		<g id="group1-1" transform="translate(99.2126,-460.63)" v:mID="1" v:groupContext="group">
			<v:custProps>
				<v:cp v:nameU="ShapeClass" v:lbl="ShapeClass" v:type="0" v:invis="true" v:ask="false" v:langID="1033"
						v:val="VT4(Connectivity)"/>
				<v:cp v:nameU="ShapeType" v:lbl="ShapeType" v:type="0" v:invis="true" v:ask="false" v:langID="1033"
						v:val="VT4(Conceptual)"/>
				<v:cp v:nameU="SubShapeType" v:lbl="SubShapeType" v:type="0" v:invis="true" v:ask="false" v:langID="1033"
						v:val="VT4(Data)"/>
			</v:custProps>
			<v:userDefs>
				<v:ud v:nameU="visLegendShape" v:val="VT0(2):26"/>
				<v:ud v:nameU="HasText" v:val="VT0(0):5"/>
				<v:ud v:nameU="SolSH" v:val="VT15({BF0433D9-CD73-4EB5-8390-8653BE590246}):41"/>
				<v:ud v:nameU="ShapeClass" v:val="VT0(4):26"/>
				<v:ud v:nameU="ShapeType" v:val="VT0(7):26"/>
				<v:ud v:nameU="SubShapeType" v:val="VT0(15):26"/>
				<v:ud v:nameU="visVersion" v:prompt="" v:val="VT0(15):26"/>
			</v:userDefs>
			<title>Data</title>
			<g id="shape2-2" v:mID="2" v:groupContext="shape" transform="translate(0,0.000575512)">
				<title>Sheet.2</title>
				<path d="M70.74 791.57 A35.3699 20.5513 0.18 0 1 69.89 796.13 A35.3699 20.5513 -179.82 0 0 70.74 791.57 L70.74 791.57
							 ZM70.74 791.57 A35.3699 20.5513 -179.82 0 0 0 791.57 L0 821.34 A35.37 20.5514 -179.82 0 0 70.74 821.34
							 L70.87 821.34 L70.87 791.57 L70.74 791.57 L70.74 791.57 Z" class="st1"/>
				<path d="M70.74 791.57 A35.3699 20.5513 0.18 0 1 69.89 796.13 A35.3699 20.5513 -179.82 0 0 70.74 791.57M70.74 791.57
							 A35.3699 20.5513 -179.82 0 0 0 791.57 L0 821.34 A35.37 20.5514 -179.82 0 0 70.74 821.34 L70.87 821.34
							 L70.87 791.57 L70.74 791.57" class="st2"/>
			</g>
			<g id="shape3-5" v:mID="3" v:groupContext="shape" transform="translate(-3.51719E-13,-29.7632)">
				<title>Sheet.3</title>
				<path d="M0 821.23 A35.3699 20.5513 -179.82 1 1 70.74 821.45 A35.3699 20.5513 -179.82 1 1 0 821.23 Z" class="st3"/>
			</g>
			<g id="shape4-9" v:mID="4" v:groupContext="shape">
				<title>Sheet.4</title>
				<path d="M0 791.57 L0 821.23 L0 821.34 A35.37 20.5514 -179.82 0 0 70.74 821.34 L70.87 821.34 L70.87 791.57 L70.74
							 791.57 A35.3699 20.5513 0.18 0 1 0 791.57 L0 791.57 Z" class="st4"/>
				<path d="M0 791.57 L0 821.23 L0 821.34 A35.37 20.5514 -179.82 0 0 70.74 821.34 L70.87 821.34 L70.87 791.57 L70.74
							 791.57 A35.3699 20.5513 0.18 0 1 0 791.57" class="st5"/>
			</g>
			<g id="shape5-16" v:mID="5" v:groupContext="shape" transform="translate(0,0.000575512)">
				<title>Sheet.5</title>
				<path d="M70.74 791.57 A35.3699 20.5513 -179.82 1 0 0 791.57 L0 821.34 A35.37 20.5514 -179.82 0 0 70.74 821.34 L70.87
							 821.34 L70.87 791.57 L70.74 791.57" class="st6"/>
			</g>
		</g>
		<g id="group6-19" transform="translate(418.11,-460.63)" v:mID="6" v:groupContext="group">
			<v:custProps>
				<v:cp v:nameU="ShapeClass" v:lbl="ShapeClass" v:type="0" v:invis="true" v:ask="false" v:langID="1033"
						v:val="VT4(Connectivity)"/>
				<v:cp v:nameU="ShapeType" v:lbl="ShapeType" v:type="0" v:invis="true" v:ask="false" v:langID="1033"
						v:val="VT4(Conceptual)"/>
				<v:cp v:nameU="SubShapeType" v:lbl="SubShapeType" v:type="0" v:invis="true" v:ask="false" v:langID="1033"
						v:val="VT4(Data)"/>
			</v:custProps>
			<v:userDefs>
				<v:ud v:nameU="visLegendShape" v:val="VT0(2):26"/>
				<v:ud v:nameU="HasText" v:val="VT0(0):5"/>
				<v:ud v:nameU="SolSH" v:val="VT15({BF0433D9-CD73-4EB5-8390-8653BE590246}):41"/>
				<v:ud v:nameU="ShapeClass" v:val="VT0(4):26"/>
				<v:ud v:nameU="ShapeType" v:val="VT0(7):26"/>
				<v:ud v:nameU="SubShapeType" v:val="VT0(15):26"/>
				<v:ud v:nameU="visVersion" v:prompt="" v:val="VT0(15):26"/>
			</v:userDefs>
			<title>Data.6</title>
			<g id="shape7-20" v:mID="7" v:groupContext="shape" transform="translate(0,0.000575512)">
				<title>Sheet.7</title>
				<path d="M70.74 791.57 A35.3699 20.5513 0.18 0 1 69.89 796.13 A35.3699 20.5513 -179.82 0 0 70.74 791.57 L70.74 791.57
							 ZM70.74 791.57 A35.3699 20.5513 -179.82 0 0 0 791.57 L0 821.34 A35.37 20.5514 -179.82 0 0 70.74 821.34
							 L70.87 821.34 L70.87 791.57 L70.74 791.57 L70.74 791.57 Z" class="st1"/>
				<path d="M70.74 791.57 A35.3699 20.5513 0.18 0 1 69.89 796.13 A35.3699 20.5513 -179.82 0 0 70.74 791.57M70.74 791.57
							 A35.3699 20.5513 -179.82 0 0 0 791.57 L0 821.34 A35.37 20.5514 -179.82 0 0 70.74 821.34 L70.87 821.34
							 L70.87 791.57 L70.74 791.57" class="st2"/>
			</g>
			<g id="shape8-23" v:mID="8" v:groupContext="shape" transform="translate(-3.51719E-13,-29.7632)">
				<title>Sheet.8</title>
				<path d="M0 821.23 A35.3699 20.5513 -179.82 1 1 70.74 821.45 A35.3699 20.5513 -179.82 1 1 0 821.23 Z" class="st3"/>
			</g>
			<g id="shape9-26" v:mID="9" v:groupContext="shape">
				<title>Sheet.9</title>
				<path d="M0 791.57 L0 821.23 L0 821.34 A35.37 20.5514 -179.82 0 0 70.74 821.34 L70.87 821.34 L70.87 791.57 L70.74
							 791.57 A35.3699 20.5513 0.18 0 1 0 791.57 L0 791.57 Z" class="st4"/>
				<path d="M0 791.57 L0 821.23 L0 821.34 A35.37 20.5514 -179.82 0 0 70.74 821.34 L70.87 821.34 L70.87 791.57 L70.74
							 791.57 A35.3699 20.5513 0.18 0 1 0 791.57" class="st5"/>
			</g>
			<g id="shape10-30" v:mID="10" v:groupContext="shape" transform="translate(0,0.000575512)">
				<title>Sheet.10</title>
				<path d="M70.74 791.57 A35.3699 20.5513 -179.82 1 0 0 791.57 L0 821.34 A35.37 20.5514 -179.82 0 0 70.74 821.34 L70.87
							 821.34 L70.87 791.57 L70.74 791.57" class="st6"/>
			</g>
		</g>
		<g id="group11-33" transform="translate(262.205,-155.906)" v:mID="11" v:groupContext="group">
			<v:custProps>
				<v:cp v:nameU="ShapeClass" v:lbl="ShapeClass" v:type="0" v:invis="true" v:ask="false" v:langID="1033"
						v:val="VT4(Connectivity)"/>
				<v:cp v:nameU="ShapeType" v:lbl="ShapeType" v:type="0" v:invis="true" v:ask="false" v:langID="1033"
						v:val="VT4(Conceptual)"/>
				<v:cp v:nameU="SubShapeType" v:lbl="SubShapeType" v:type="0" v:invis="true" v:ask="false" v:langID="1033"
						v:val="VT4(Data)"/>
			</v:custProps>
			<v:userDefs>
				<v:ud v:nameU="visLegendShape" v:val="VT0(2):26"/>
				<v:ud v:nameU="HasText" v:val="VT0(0):5"/>
				<v:ud v:nameU="SolSH" v:val="VT15({BF0433D9-CD73-4EB5-8390-8653BE590246}):41"/>
				<v:ud v:nameU="ShapeClass" v:val="VT0(4):26"/>
				<v:ud v:nameU="ShapeType" v:val="VT0(7):26"/>
				<v:ud v:nameU="SubShapeType" v:val="VT0(15):26"/>
				<v:ud v:nameU="visVersion" v:prompt="" v:val="VT0(15):26"/>
				<v:ud v:nameU="HasText" v:prompt="" v:val="VT0(1):5"/>
			</v:userDefs>
			<title>Data.11</title>
			<desc>NAS Sidecar</desc>
			<g id="shape12-34" v:mID="12" v:groupContext="shape" transform="translate(0,0.000575512)">
				<title>Sheet.12</title>
				<path d="M70.74 791.57 A35.3699 20.5513 0.18 0 1 69.89 796.13 A35.3699 20.5513 -179.82 0 0 70.74 791.57 L70.74 791.57
							 ZM70.74 791.57 A35.3699 20.5513 -179.82 0 0 0 791.57 L0 821.34 A35.37 20.5514 -179.82 0 0 70.74 821.34
							 L70.87 821.34 L70.87 791.57 L70.74 791.57 L70.74 791.57 Z" class="st1"/>
				<path d="M70.74 791.57 A35.3699 20.5513 0.18 0 1 69.89 796.13 A35.3699 20.5513 -179.82 0 0 70.74 791.57M70.74 791.57
							 A35.3699 20.5513 -179.82 0 0 0 791.57 L0 821.34 A35.37 20.5514 -179.82 0 0 70.74 821.34 L70.87 821.34
							 L70.87 791.57 L70.74 791.57" class="st2"/>
			</g>
			<g id="shape13-37" v:mID="13" v:groupContext="shape" transform="translate(-3.51719E-13,-29.7632)">
				<title>Sheet.13</title>
				<path d="M0 821.23 A35.3699 20.5513 -179.82 1 1 70.74 821.45 A35.3699 20.5513 -179.82 1 1 0 821.23 Z" class="st3"/>
			</g>
			<g id="shape14-40" v:mID="14" v:groupContext="shape">
				<title>Sheet.14</title>
				<path d="M0 791.57 L0 821.23 L0 821.34 A35.37 20.5514 -179.82 0 0 70.74 821.34 L70.87 821.34 L70.87 791.57 L70.74
							 791.57 A35.3699 20.5513 0.18 0 1 0 791.57 L0 791.57 Z" class="st4"/>
				<path d="M0 791.57 L0 821.23 L0 821.34 A35.37 20.5514 -179.82 0 0 70.74 821.34 L70.87 821.34 L70.87 791.57 L70.74
							 791.57 A35.3699 20.5513 0.18 0 1 0 791.57" class="st5"/>
			</g>
			<g id="shape15-44" v:mID="15" v:groupContext="shape" transform="translate(0,0.000575512)">
				<title>Sheet.15</title>
				<path d="M70.74 791.57 A35.3699 20.5513 -179.82 1 0 0 791.57 L0 821.34 A35.37 20.5514 -179.82 0 0 70.74 821.34 L70.87
							 821.34 L70.87 791.57 L70.74 791.57" class="st6"/>
			</g>
			<g id="shape11-47" v:mID="11" v:groupContext="groupContent">
				<v:textBlock v:margins="rect(4,4,4,4)" v:tabSpace="42.5197"/>
				<v:textRect cx="35.4331" cy="853.092" width="72.8" height="22.4037"/>
				<text x="4.36" y="856.69" class="st7" v:langID="1033"><v:paragraph v:horizAlign="1"/><v:tabList/>NAS Sidecar</text>			</g>
		</g>
		<g id="group16-49" transform="translate(99.2126,-623.622)" v:mID="16" v:groupContext="group">
			<v:custProps>
				<v:cp v:nameU="ShapeClass" v:lbl="ShapeClass" v:type="0" v:invis="true" v:ask="false" v:langID="1033"
						v:val="VT4(Connectivity)"/>
				<v:cp v:nameU="ShapeType" v:lbl="ShapeType" v:type="0" v:invis="true" v:ask="false" v:langID="1033"
						v:val="VT4(Conceptual)"/>
				<v:cp v:nameU="SubShapeType" v:lbl="SubShapeType" v:type="0" v:invis="true" v:ask="false" v:langID="1033"
						v:val="VT4(Data)"/>
			</v:custProps>
			<v:userDefs>
				<v:ud v:nameU="visLegendShape" v:val="VT0(2):26"/>
				<v:ud v:nameU="HasText" v:val="VT0(0):5"/>
				<v:ud v:nameU="SolSH" v:val="VT15({BF0433D9-CD73-4EB5-8390-8653BE590246}):41"/>
				<v:ud v:nameU="ShapeClass" v:val="VT0(4):26"/>
				<v:ud v:nameU="ShapeType" v:val="VT0(7):26"/>
				<v:ud v:nameU="SubShapeType" v:val="VT0(15):26"/>
				<v:ud v:nameU="visVersion" v:prompt="" v:val="VT0(15):26"/>
			</v:userDefs>
			<title>Data.16</title>
			<g id="shape17-50" v:mID="17" v:groupContext="shape" transform="translate(0,0.000575512)">
				<title>Sheet.17</title>
				<path d="M70.74 791.57 A35.3699 20.5513 0.18 0 1 69.89 796.13 A35.3699 20.5513 -179.82 0 0 70.74 791.57 L70.74 791.57
							 ZM70.74 791.57 A35.3699 20.5513 -179.82 0 0 0 791.57 L0 821.34 A35.37 20.5514 -179.82 0 0 70.74 821.34
							 L70.87 821.34 L70.87 791.57 L70.74 791.57 L70.74 791.57 Z" class="st1"/>
				<path d="M70.74 791.57 A35.3699 20.5513 0.18 0 1 69.89 796.13 A35.3699 20.5513 -179.82 0 0 70.74 791.57M70.74 791.57
							 A35.3699 20.5513 -179.82 0 0 0 791.57 L0 821.34 A35.37 20.5514 -179.82 0 0 70.74 821.34 L70.87 821.34
							 L70.87 791.57 L70.74 791.57" class="st2"/>
			</g>
			<g id="shape18-53" v:mID="18" v:groupContext="shape" transform="translate(-3.51719E-13,-29.7632)">
				<title>Sheet.18</title>
				<path d="M0 821.23 A35.3699 20.5513 -179.82 1 1 70.74 821.45 A35.3699 20.5513 -179.82 1 1 0 821.23 Z" class="st3"/>
			</g>
			<g id="shape19-56" v:mID="19" v:groupContext="shape">
				<title>Sheet.19</title>
				<path d="M0 791.57 L0 821.23 L0 821.34 A35.37 20.5514 -179.82 0 0 70.74 821.34 L70.87 821.34 L70.87 791.57 L70.74
							 791.57 A35.3699 20.5513 0.18 0 1 0 791.57 L0 791.57 Z" class="st4"/>
				<path d="M0 791.57 L0 821.23 L0 821.34 A35.37 20.5514 -179.82 0 0 70.74 821.34 L70.87 821.34 L70.87 791.57 L70.74
							 791.57 A35.3699 20.5513 0.18 0 1 0 791.57" class="st5"/>
			</g>
			<g id="shape20-60" v:mID="20" v:groupContext="shape" transform="translate(0,0.000575512)">
				<title>Sheet.20</title>
				<path d="M70.74 791.57 A35.3699 20.5513 -179.82 1 0 0 791.57 L0 821.34 A35.37 20.5514 -179.82 0 0 70.74 821.34 L70.87
							 821.34 L70.87 791.57 L70.74 791.57" class="st6"/>
			</g>
		</g>
		<g id="shape22-63" v:mID="22" v:groupContext="shape" v:layerMember="0" transform="translate(962.362,218.268) rotate(90)">
			<title>1-D single</title>
			<v:userDefs>
				<v:ud v:nameU="visVersion" v:val="VT0(15):26"/>
			</v:userDefs>
			<path d="M0 820.63 L0 834.8 L85.04 834.8 L85.04 841.89 L92.13 827.72 L85.04 813.54 L85.04 820.63 L0 820.63 Z"
					class="st8"/>
		</g>
		<g id="shape23-65" v:mID="23" v:groupContext="shape" transform="translate(83.2677,-657.283)">
			<title>Data.23</title>
			<desc>Packages</desc>
			<v:textBlock v:margins="rect(4,4,4,4)" v:tabSpace="42.5197"/>
			<v:textRect cx="51.378" cy="790.512" width="102.76" height="102.756"/>
			<rect x="0" y="739.134" width="102.756" height="102.756" class="st9"/>
			<text x="27.85" y="794.11" class="st7" v:langID="1033"><v:paragraph v:horizAlign="1"/><v:tabList/>Packages</text>		</g>
		<g id="shape25-68" v:mID="25" v:groupContext="shape" transform="translate(38.2677,-460.63)">
			<title>Data.25</title>
			<desc>Staging Area</desc>
			<v:textBlock v:margins="rect(4,4,4,4)" v:tabSpace="42.5197"/>
			<v:textRect cx="35.4331" cy="806.457" width="70.87" height="70.8661"/>
			<rect x="0" y="771.024" width="70.8661" height="70.8661" class="st9"/>
			<text x="16.55" y="802.86" class="st7" v:langID="1033"><v:paragraph v:horizAlign="1"/><v:tabList/>Staging<v:lf/><tspan
						x="23.36" dy="1.2em" class="st10">Area</tspan></text>		</g>
		<g id="shape26-72" v:mID="26" v:groupContext="shape" transform="translate(477.165,-457.48)">
			<title>Data.26</title>
			<desc>Config Vault</desc>
			<v:textBlock v:margins="rect(4,4,4,4)" v:tabSpace="42.5197"/>
			<v:textRect cx="35.4331" cy="806.457" width="70.87" height="70.8661"/>
			<rect x="0" y="771.024" width="70.8661" height="70.8661" class="st9"/>
			<text x="19.08" y="802.86" class="st7" v:langID="1033"><v:paragraph v:horizAlign="1"/><v:tabList/>Config<v:lf/><tspan
						x="21.91" dy="1.2em" class="st10">Vault</tspan></text>		</g>
		<g id="shape27-76" v:mID="27" v:groupContext="shape" v:layerMember="0"
				transform="translate(-428.25,203.198) rotate(-61.2797)">
			<title>1-D single.27</title>
			<v:userDefs>
				<v:ud v:nameU="visVersion" v:val="VT0(15):26"/>
			</v:userDefs>
			<path d="M0 820.63 L0 834.8 L228.87 834.8 L228.87 841.89 L235.96 827.72 L228.87 813.54 L228.87 820.63 L0 820.63 Z"
					class="st8"/>
		</g>
		<g id="shape28-78" v:mID="28" v:groupContext="shape" v:layerMember="0"
				transform="translate(-465.229,988.183) rotate(-117.451)">
			<title>1-D single.28</title>
			<v:userDefs>
				<v:ud v:nameU="visVersion" v:val="VT0(15):26"/>
			</v:userDefs>
			<path d="M0 820.63 L0 834.8 L238.88 834.8 L238.88 841.89 L245.96 827.72 L238.88 813.54 L238.88 820.63 L0 820.63 Z"
					class="st8"/>
		</g>
		<g id="shape29-80" v:mID="29" v:groupContext="shape" v:layerMember="0"
				transform="translate(-165.504,1176.82) rotate(-142.923)">
			<title>Curve connect 2</title>
			<v:userDefs>
				<v:ud v:nameU="visVersion" v:val="VT0(15):26"/>
			</v:userDefs>
			<path d="M203.12 841.89 A279.673 279.673 -180 0 0 7.82 838.97 L7.48 839.1" class="st11"/>
		</g>
		<g id="shape30-86" v:mID="30" v:groupContext="shape" v:layerMember="0"
				transform="translate(-385.73,210.285) rotate(-61.2797)">
			<title>1-D single.30</title>
			<v:userDefs>
				<v:ud v:nameU="visVersion" v:val="VT0(15):26"/>
			</v:userDefs>
			<path d="M0 820.63 L0 834.8 L228.87 834.8 L228.87 841.89 L235.96 827.72 L228.87 813.54 L228.87 820.63 L0 820.63 Z"
					class="st8"/>
		</g>
		<g id="shape31-88" v:mID="31" v:groupContext="shape" v:layerMember="1" transform="translate(311.811,-348.819)">
			<title>Reference oval</title>
			<desc>1</desc>
			<v:userDefs>
				<v:ud v:nameU="AntiScale" v:val="VT0(1):26"/>
				<v:ud v:nameU="TextSize" v:val="VT0(0.11111111111111):29"/>
				<v:ud v:nameU="visVersion" v:val="VT0(15):26"/>
			</v:userDefs>
			<v:textBlock v:margins="rect(0,0,0,0)" v:tabSpace="42.5197"/>
			<v:textRect cx="21.2598" cy="827.717" width="42.52" height="28.3465"/>
			<path d="M0 827.72 A21.2598 14.1732 -180 1 0 42.52 827.72 A21.2598 14.1732 -180 0 0 0 827.72 Z" class="st8"/>
			<text x="14.33" y="834.02" class="st13" v:langID="3072"><v:paragraph v:spLine="-1.4" v:horizAlign="1"/><v:tabList/>1</text>		</g>
		<g id="shape32-91" v:mID="32" v:groupContext="shape" v:layerMember="1" transform="translate(162.992,-325.984)">
			<title>Reference oval.32</title>
			<desc>2</desc>
			<v:userDefs>
				<v:ud v:nameU="AntiScale" v:val="VT0(1):26"/>
				<v:ud v:nameU="TextSize" v:val="VT0(0.11111111111111):29"/>
				<v:ud v:nameU="visVersion" v:val="VT0(15):26"/>
			</v:userDefs>
			<v:textBlock v:margins="rect(0,0,0,0)" v:tabSpace="42.5197"/>
			<v:textRect cx="21.2598" cy="827.717" width="42.52" height="28.3465"/>
			<path d="M0 827.72 A21.2598 14.1732 -180 1 0 42.52 827.72 A21.2598 14.1732 -180 0 0 0 827.72 Z" class="st8"/>
			<text x="14.85" y="834.02" class="st13" v:langID="1033"><v:paragraph v:spLine="-1.4" v:horizAlign="1"/><v:tabList/>2</text>		</g>
		<g id="shape33-94" v:mID="33" v:groupContext="shape" v:layerMember="1" transform="translate(396.85,-299.213)">
			<title>Reference oval.33</title>
			<desc>3</desc>
			<v:userDefs>
				<v:ud v:nameU="AntiScale" v:val="VT0(1):26"/>
				<v:ud v:nameU="TextSize" v:val="VT0(0.11111111111111):29"/>
				<v:ud v:nameU="visVersion" v:val="VT0(15):26"/>
			</v:userDefs>
			<v:textBlock v:margins="rect(0,0,0,0)" v:tabSpace="42.5197"/>
			<v:textRect cx="21.2598" cy="827.717" width="42.52" height="28.3465"/>
			<path d="M0 827.72 A21.2598 14.1732 -180 1 0 42.52 827.72 A21.2598 14.1732 -180 0 0 0 827.72 Z" class="st8"/>
			<text x="14.87" y="834.02" class="st13" v:langID="1033"><v:paragraph v:spLine="-1.4" v:horizAlign="1"/><v:tabList/>3</text>		</g>
		<g id="shape34-97" v:mID="34" v:groupContext="shape" v:layerMember="1" transform="translate(148.819,-572.441)">
			<title>Reference oval.34</title>
			<desc>4</desc>
			<v:userDefs>
				<v:ud v:nameU="AntiScale" v:val="VT0(1):26"/>
				<v:ud v:nameU="TextSize" v:val="VT0(0.11111111111111):29"/>
				<v:ud v:nameU="visVersion" v:val="VT0(15):26"/>
			</v:userDefs>
			<v:textBlock v:margins="rect(0,0,0,0)" v:tabSpace="42.5197"/>
			<v:textRect cx="21.2598" cy="827.717" width="42.52" height="28.3465"/>
			<path d="M0 827.72 A21.2598 14.1732 -180 1 0 42.52 827.72 A21.2598 14.1732 -180 0 0 0 827.72 Z" class="st8"/>
			<text x="14.97" y="834.02" class="st13" v:langID="1033"><v:paragraph v:spLine="-1.4" v:horizAlign="1"/><v:tabList/>4</text>		</g>
		<g id="shape35-100" v:mID="35" v:groupContext="shape" v:layerMember="0" transform="translate(127.559,-447.874)">
			<title>Elbow 2</title>
			<v:userDefs>
				<v:ud v:nameU="Scale" v:val="VT0(1):26"/>
				<v:ud v:nameU="AntiScale" v:val="VT0(1):26"/>
				<v:ud v:nameU="visVersion" v:val="VT0(15):26"/>
			</v:userDefs>
			<path d="M8.5 841.89 L8.5 1091.5 L107.09 1091.5 L107.09 1085.83 L121.26 1100 L107.09 1114.17 L107.09 1108.5 L-8.5 1108.5
						 L-8.5 841.89 L8.5 841.89 Z" class="st14"/>
			<path d="M8.5 841.89 L8.5 1091.5 L107.09 1091.5 L107.09 1085.83 L121.26 1100 L107.09 1114.17 L107.09 1108.5 L-8.5 1108.5
						 L-8.5 841.89" class="st15"/>
			<path d="" class="st15"/>
			<path d="M8.5 841.89 L-8.5 841.89" class="st15"/>
		</g>
		<g id="shape36-105" v:mID="36" v:groupContext="shape" v:layerMember="1" transform="translate(70.8661,-297.638)">
			<title>Reference oval.36</title>
			<desc>5</desc>
			<v:userDefs>
				<v:ud v:nameU="AntiScale" v:val="VT0(1):26"/>
				<v:ud v:nameU="TextSize" v:val="VT0(0.11111111111111):29"/>
				<v:ud v:nameU="visVersion" v:val="VT0(15):26"/>
			</v:userDefs>
			<v:textBlock v:margins="rect(0,0,0,0)" v:tabSpace="42.5197"/>
			<v:textRect cx="21.2598" cy="827.717" width="42.52" height="28.3465"/>
			<path d="M0 827.72 A21.2598 14.1732 -180 1 0 42.52 827.72 A21.2598 14.1732 -180 0 0 0 827.72 Z" class="st8"/>
			<text x="14.81" y="834.02" class="st13" v:langID="1033"><v:paragraph v:spLine="-1.4" v:horizAlign="1"/><v:tabList/>5</text>		</g>
		<g id="shape38-108" v:mID="38" v:groupContext="shape" v:layerMember="1" transform="translate(503.15,-299.213)">
			<title>Reference oval.38</title>
			<desc>6</desc>
			<v:userDefs>
				<v:ud v:nameU="AntiScale" v:val="VT0(1):26"/>
				<v:ud v:nameU="TextSize" v:val="VT0(0.11111111111111):29"/>
				<v:ud v:nameU="visVersion" v:val="VT0(15):26"/>
			</v:userDefs>
			<v:textBlock v:margins="rect(0,0,0,0)" v:tabSpace="42.5197"/>
			<v:textRect cx="21.2598" cy="827.717" width="42.52" height="28.3465"/>
			<path d="M0 827.72 A21.2598 14.1732 -180 1 0 42.52 827.72 A21.2598 14.1732 -180 0 0 0 827.72 Z" class="st8"/>
			<text x="14.86" y="834.02" class="st13" v:langID="1033"><v:paragraph v:spLine="-1.4" v:horizAlign="1"/><v:tabList/>6</text>		</g>
		<g id="shape39-111" v:mID="39" v:groupContext="shape" v:layerMember="0" transform="translate(488.976,-439.37)">
			<title>Elbow 2.39</title>
			<v:userDefs>
				<v:ud v:nameU="Scale" v:val="VT0(1):26"/>
				<v:ud v:nameU="AntiScale" v:val="VT0(1):26"/>
				<v:ud v:nameU="visVersion" v:val="VT0(15):26"/>
			</v:userDefs>
			<path d="M-8.5 841.89 L-8.5 1080 L-130.39 1080 L-130.39 1074.33 L-144.57 1088.5 L-130.39 1102.68 L-130.39 1097.01 L8.5
						 1097.01 L8.5 841.89 L-8.5 841.89 Z" class="st14"/>
			<path d="M-8.5 841.89 L-8.5 1080 L-130.39 1080 L-130.39 1074.33 L-144.57 1088.5 L-130.39 1102.68 L-130.39 1097.01 L8.5
						 1097.01 L8.5 841.89" class="st15"/>
			<path d="" class="st15"/>
			<path d="M-8.5 841.89 L8.5 841.89" class="st15"/>
		</g>
		<g id="shape40-116" v:mID="40" v:groupContext="shape" transform="translate(-715.591,338.74) rotate(-90)">
			<title>Sheet.40</title>
			<desc>staging</desc>
			<v:textBlock v:margins="rect(4,4,4,4)" v:tabSpace="42.5197"/>
			<v:textRect cx="76" cy="831.89" width="152" height="20"/>
			<rect x="0" y="821.89" width="152" height="20" class="st9"/>
			<text x="57.52" y="835.49" class="st7" v:langID="1033"><v:paragraph v:horizAlign="1"/><v:tabList/>staging</text>		</g>
		<g id="shape41-119" v:mID="41" v:groupContext="shape" transform="translate(-411.472,177.036) rotate(-61.2403)">
			<title>Sheet.41</title>
			<desc>Rsync --update [–existing] (relative to the staging area)</desc>
			<v:textBlock v:margins="rect(4,4,4,4)" v:tabSpace="42.5197"/>
			<v:textRect cx="86.189" cy="831.89" width="172.38" height="20"/>
			<rect x="0" y="821.89" width="172.378" height="20" class="st9"/>
			<text x="19.09" y="828.29" class="st7" v:langID="1033"><v:paragraph v:horizAlign="1"/><v:tabList/>Rsync --update [–existing]<v:lf/><tspan
						x="13.47" dy="1.2em" class="st10">(relative to the staging area)</tspan></text>		</g>
		<g id="shape42-123" v:mID="42" v:groupContext="shape" transform="translate(922.649,59.6936) rotate(62.6925)">
			<title>Sheet.42</title>
			<desc>Rsync --update --existing</desc>
			<v:textBlock v:margins="rect(4,4,4,4)" v:tabSpace="42.5197"/>
			<v:textRect cx="76" cy="831.89" width="152" height="20"/>
			<rect x="0" y="821.89" width="152" height="20" class="st9"/>
			<text x="12.12" y="835.49" class="st7" v:langID="1033"><v:paragraph v:horizAlign="1"/><v:tabList/>Rsync --update --existing</text>		</g>
		<g id="shape45-126" v:mID="45" v:groupContext="shape" transform="translate(-373.897,181.174) rotate(-61.6871)">
			<title>Sheet.45</title>
			<desc>Rsync (normal mode)</desc>
			<v:textBlock v:margins="rect(4,4,4,4)" v:tabSpace="42.5197"/>
			<v:textRect cx="76" cy="831.89" width="152" height="20"/>
			<rect x="0" y="821.89" width="152" height="20" class="st9"/>
			<text x="20.46" y="835.49" class="st7" v:langID="1033"><v:paragraph v:horizAlign="1"/><v:tabList/>Rsync (normal mode)</text>		</g>
		<g id="shape47-129" v:mID="47" v:groupContext="shape" transform="translate(85.0394,-181.339)">
			<title>Sheet.47</title>
			<desc>Deploy</desc>
			<v:textBlock v:margins="rect(4,4,4,4)" v:tabSpace="42.5197"/>
			<v:textRect cx="76" cy="831.89" width="152" height="20"/>
			<rect x="0" y="821.89" width="152" height="20" class="st9"/>
			<text x="57.93" y="835.49" class="st7" v:langID="1033"><v:paragraph v:horizAlign="1"/><v:tabList/>Deploy</text>		</g>
		<g id="shape49-132" v:mID="49" v:groupContext="shape" transform="translate(355.465,-182.268)">
			<title>Sheet.49</title>
			<desc>Config injection</desc>
			<v:textBlock v:margins="rect(4,4,4,4)" v:tabSpace="42.5197"/>
			<v:textRect cx="76" cy="831.89" width="152" height="20"/>
			<rect x="0" y="821.89" width="152" height="20" class="st9"/>
			<text x="35.91" y="835.49" class="st7" v:langID="1033"><v:paragraph v:horizAlign="1"/><v:tabList/>Config injection</text>		</g>
	</g>
</svg>
